HIERARCHY
ROOT joint_Root
{
	OFFSET 0.0 0.0 0.0
	CHANNELS 6 Xposition Yposition Zposition Zrotation Xrotation Yrotation 
	JOINT Hips
	{
		OFFSET 4.5925 91.4895 -427.239
		CHANNELS 6 Xposition Yposition Zposition Zrotation Xrotation Yrotation 
		JOINT Spine
		{
			OFFSET 15.7357 0.0 0.0
			CHANNELS 6 Xposition Yposition Zposition Zrotation Xrotation Yrotation 
			JOINT Chest
			{
				OFFSET 8.98455 -0.406207 0.0
				CHANNELS 6 Xposition Yposition Zposition Zrotation Xrotation Yrotation 
				JOINT Neck
				{
					OFFSET 16.3773 0.0 0.0
					CHANNELS 6 Xposition Yposition Zposition Zrotation Xrotation Yrotation 
					JOINT Head
					{
						OFFSET 6.45672 0.0 0.0
						CHANNELS 6 Xposition Yposition Zposition Zrotation Xrotation Yrotation 
						End Site
						{
							OFFSET 0.0 0.0 0.0
						}
					}
				}
				JOINT Shoulder_L
				{
					OFFSET 12.9942 -0.242716 4.98039
					CHANNELS 6 Xposition Yposition Zposition Zrotation Xrotation Yrotation 
					JOINT UpperArm_L
					{
						OFFSET 5.34809 0.0 0.0
						CHANNELS 6 Xposition Yposition Zposition Zrotation Xrotation Yrotation 
						JOINT LowerArm_L
						{
							OFFSET 24.3286 1.87007e-05 0.0
							CHANNELS 6 Xposition Yposition Zposition Zrotation Xrotation Yrotation 
							JOINT Hand_L
							{
								OFFSET 22.2916 0.0 0.0
								CHANNELS 6 Xposition Yposition Zposition Zrotation Xrotation Yrotation 
								End Site
								{
									OFFSET 0.0 0.0 0.0
								}
							}
						}
					}
				}
				JOINT Shoulder_R
				{
					OFFSET 12.9945 -0.242716 -4.98039
					CHANNELS 6 Xposition Yposition Zposition Zrotation Xrotation Yrotation 
					JOINT UpperArm_R
					{
						OFFSET -5.34813 0.0 0.0
						CHANNELS 6 Xposition Yposition Zposition Zrotation Xrotation Yrotation 
						JOINT LowerArm_R
						{
							OFFSET -24.3289 0.000322201 0.0
							CHANNELS 6 Xposition Yposition Zposition Zrotation Xrotation Yrotation 
							JOINT Hand_R
							{
								OFFSET -22.2915 -0.000108084 0.0
								CHANNELS 6 Xposition Yposition Zposition Zrotation Xrotation Yrotation 
								End Site
								{
									OFFSET 0.0 0.0 0.0
								}
							}
						}
					}
				}
			}
		}
		JOINT UpperLeg_L
		{
			OFFSET -2.19248 -6.46944 0.0
			CHANNELS 6 Xposition Yposition Zposition Zrotation Xrotation Yrotation 
			JOINT LowerLeg_L
			{
				OFFSET 39.0811 0.0 -1.23785e-05
				CHANNELS 6 Xposition Yposition Zposition Zrotation Xrotation Yrotation 
				JOINT Foot_L
				{
					OFFSET 40.9854 0.0 -1.26872e-05
					CHANNELS 6 Xposition Yposition Zposition Zrotation Xrotation Yrotation 
					JOINT Toes_L
					{
						OFFSET 11.7543 0.0 0.0
						CHANNELS 6 Xposition Yposition Zposition Zrotation Xrotation Yrotation 
						End Site
						{
							OFFSET 0.0 0.0 0.0
						}
					}
				}
			}
		}
		JOINT UpperLeg_R
		{
			OFFSET -2.19251 6.46944 0.0
			CHANNELS 6 Xposition Yposition Zposition Zrotation Xrotation Yrotation 
			JOINT LowerLeg_R
			{
				OFFSET -39.0811 -0.00228153 -0.0401928
				CHANNELS 6 Xposition Yposition Zposition Zrotation Xrotation Yrotation 
				JOINT Foot_R
				{
					OFFSET -40.9854 0.0 0.0
					CHANNELS 6 Xposition Yposition Zposition Zrotation Xrotation Yrotation 
					JOINT Toes_R
					{
						OFFSET -11.7543 0.0 0.0
						CHANNELS 6 Xposition Yposition Zposition Zrotation Xrotation Yrotation 
						End Site
						{
							OFFSET 0.0 0.0 0.0
						}
					}
				}
			}
		}
	}
}
MOTION
Frames:	4
Frame Time:	0.0333333
0.000000 0.000000 0.000000 0.000000 0.000000 -0.000000 0.226524 84.596300 -0.612741 90.511800 -7.065440 11.483500 15.735700 0.000005 -0.000001 91.782100 81.454500 -91.475000 8.984550 -0.406207 -0.000000 9.315640 0.532710 0.570417 16.377300 -0.000001 -0.000001 -0.051621 -2.794950 0.728610 6.456720 -0.000001 -0.000000 -0.403516 -3.659560 4.338880 12.994200 -0.242716 4.980390 -91.690700 5.702800 -73.455000 5.348090 -0.000007 -0.000001 -66.648800 18.458800 -12.423300 24.328600 0.000019 0.000005 12.246000 18.033600 -35.027400 22.291600 -0.000001 0.000005 7.599740 5.450090 -4.654180 12.994500 -0.242716 -4.980390 88.407100 9.188280 -80.120700 -5.348130 -0.000001 -0.000004 -60.500800 34.643900 -10.093600 -24.328900 0.000322 -0.000009 0.566412 1.269980 -24.130300 -22.291500 -0.000108 -0.000004 18.624200 5.477730 -5.661130 -2.192480 -6.469440 -0.000000 -174.436000 -16.919400 -9.555930 39.081100 -0.000007 -0.000012 -0.388453 0.276885 54.520000 40.985400 -0.000006 -0.000013 2.106040 5.743810 -82.945100 11.754300 -0.000000 0.000003 -0.000566 -0.004412 -16.738000 -2.192510 6.469440 -0.000001 174.025000 11.985500 168.685000 -39.081100 -0.002282 -0.040193 0.057756 -0.037130 55.749800 -40.985400 0.000008 0.000006 7.022590 7.754750 -82.957600 -11.754300 -0.000006 -0.000006 -0.817469 -1.011600 -16.734400
0.000000 0.000000 0.000000 0.000000 0.000000 -0.000000 0.436489 86.679900 0.149425 90.896400 -7.717400 11.284100 15.735700 0.000005 -0.000001 90.604900 82.219800 -89.623200 8.984550 -0.406207 -0.000000 7.792860 0.163850 1.950360 16.377300 -0.000001 -0.000001 2.520150 -2.594240 0.360680 6.456720 -0.000001 -0.000000 0.751953 -3.357410 2.837230 12.994200 -0.242716 4.980390 -91.472500 4.578130 -72.147100 5.348090 -0.000007 -0.000001 -59.740600 16.838700 -19.354800 24.328600 0.000019 0.000005 15.039300 17.802700 -41.311200 22.291600 -0.000001 0.000005 9.224150 5.461290 -5.047400 12.994500 -0.242716 -4.980390 88.255200 9.053140 -79.042800 -5.348130 -0.000001 -0.000004 -62.496100 32.221300 -7.849050 -24.328900 0.000322 -0.000009 0.919943 2.193000 -22.785900 -22.291500 -0.000108 -0.000004 19.019600 5.453220 -4.754700 -2.192480 -6.469440 -0.000000 -175.073000 -16.979300 -5.565430 39.081100 -0.000007 -0.000012 -0.342519 0.317400 47.180600 40.985400 -0.000006 -0.000013 1.611240 5.232570 -79.858500 11.754300 -0.000000 0.000003 -0.000499 -0.003975 -16.722900 -2.192510 6.469440 -0.000001 173.457000 11.565400 172.230000 -39.081100 -0.002282 -0.040193 0.043093 -0.034672 48.969400 -40.985400 0.000008 0.000006 6.514830 8.607370 -79.938300 -11.754300 -0.000006 -0.000006 -0.659595 -0.811448 -16.945300
0.000000 0.000000 0.000000 0.000000 0.000000 -0.000000 0.392982 88.794400 0.603505 90.616800 -7.458210 9.817340 15.735700 0.000005 -0.000001 89.336300 83.519800 -87.424300 8.984550 -0.406207 -0.000000 5.199610 -0.192547 3.828520 16.377300 -0.000001 -0.000001 5.459740 -3.241330 0.144265 6.456720 -0.000001 -0.000000 2.373040 -3.543580 1.184620 12.994200 -0.242716 4.980390 -90.971300 2.932680 -71.665600 5.348090 -0.000007 -0.000001 -53.562400 7.226250 -29.653800 24.328600 0.000019 0.000005 13.335300 13.040200 -46.426400 22.291600 -0.000001 0.000005 11.442900 5.472800 -5.465700 12.994500 -0.242716 -4.980390 88.192700 8.215670 -77.547000 -5.348130 -0.000001 -0.000004 -64.378100 30.545400 -4.274110 -24.328900 0.000322 -0.000009 -0.136264 -0.308085 -23.589300 -22.291500 -0.000108 -0.000004 18.341800 5.470470 -5.394150 -2.192480 -6.469440 -0.000000 -175.153000 -17.085200 -2.708790 39.081100 -0.000007 -0.000012 -0.265426 0.328188 38.965100 40.985400 -0.000006 -0.000013 1.361030 5.833830 -75.978000 11.754300 -0.000000 0.000003 -0.000373 -0.003120 -16.692900 -2.192510 6.469440 -0.000001 173.684000 13.035100 175.155000 -39.081100 -0.002282 -0.040193 0.031931 -0.033044 40.931100 -40.985400 0.000008 0.000006 6.232270 9.996260 -76.118400 -11.754300 -0.000006 -0.000006 -0.433601 -0.533800 -17.252000
0.000000 0.000000 0.000000 0.000000 0.000000 -0.000000 0.161510 90.324400 0.866006 90.091200 -6.519010 8.140130 15.735700 0.000005 -0.000001 86.324000 84.821000 -83.574300 8.984550 -0.406207 -0.000000 2.595610 -0.787425 5.511750 16.377300 -0.000001 -0.000001 7.563750 -4.216450 0.327449 6.456720 -0.000001 -0.000000 3.709540 -3.914240 0.387967 12.994200 -0.242716 4.980390 -90.379400 1.210640 -72.613300 5.348090 -0.000007 -0.000001 -47.508300 -6.671980 -41.502700 24.328600 0.000019 0.000005 12.155000 9.659570 -52.084200 22.291600 -0.000001 0.000005 14.955200 5.501010 -6.558310 12.994500 -0.242716 -4.980390 88.129200 7.486390 -75.926000 -5.348130 -0.000001 -0.000004 -64.892800 30.145300 -0.535293 -24.328900 0.000322 -0.000009 -0.690819 -1.398710 -26.248000 -22.291500 -0.000108 -0.000004 16.105800 5.484970 -5.944290 -2.192480 -6.469440 -0.000000 -174.688000 -17.839700 -0.798097 39.081100 -0.000007 -0.000012 -0.184055 0.293954 32.052400 40.985400 -0.000006 -0.000013 1.308520 7.597780 -72.577000 11.754300 -0.000000 0.000003 -0.000223 -0.002030 -16.653900 -2.192510 6.469440 -0.000001 173.893000 16.657700 177.632000 -39.081100 -0.002282 -0.040193 0.022264 -0.028414 33.728200 -40.985400 0.000008 0.000006 6.305160 12.725800 -72.992300 -11.754300 -0.000006 -0.000006 -0.285511 -0.356063 -17.332000
